<?xml version="1.0" standalone="no"?>
<!DOCTYPE svg PUBLIC "-//W3C//DTD SVG 20010904//EN"
 "http://www.w3.org/TR/2001/REC-SVG-20010904/DTD/svg10.dtd">
<svg version="1.0" xmlns="http://www.w3.org/2000/svg"
 width="160.000000pt" height="64.000000pt" viewBox="0 0 160.000000 64.000000"
 preserveAspectRatio="xMidYMid meet">
<metadata>
Created by potrace 1.16, written by Peter Selinger 2001-2019
</metadata>
<g transform="translate(0.000000,64.000000) scale(0.071111,-0.028444)"
fill="#000000" stroke="none">
<path d="M250 1345 l0 -235 65 0 65 0 0 93 c0 62 4 99 13 112 27 36 37 7 37
-101 l0 -104 71 0 71 0 -4 138 c-2 111 -6 142 -21 163 -31 46 -86 58 -149 34
-16 -6 -18 0 -18 64 l0 71 -65 0 -65 0 0 -235z"/>
<path d="M912 1403 c4 -205 13 -232 99 -276 46 -24 62 -28 108 -23 154 15 225
181 123 289 -34 36 -69 54 -107 57 -66 5 -65 6 -65 -66 0 -62 1 -65 21 -59 41
13 78 -52 47 -83 -15 -15 -61 -15 -76 0 -8 8 -12 60 -12 170 l0 158 -71 0 -71
0 4 -167z"/>
<path d="M580 1338 c0 -143 18 -189 82 -218 55 -25 102 -25 152 0 72 35 81 57
84 203 l4 127 -66 0 -66 0 0 -104 c0 -83 -3 -106 -16 -117 -30 -25 -44 14 -44
123 l0 98 -65 0 -65 0 0 -112z"/>
<path d="M865 1131 c-89 -41 -105 -84 -105 -291 l0 -160 65 0 65 0 0 65 c0 58
2 65 20 65 12 0 25 -13 36 -36 53 -111 216 -135 306 -44 l38 38 38 -38 c76
-76 196 -76 272 0 l39 39 38 -39 c92 -91 253 -68 304 44 16 35 19 67 19 204
l0 162 -65 0 -65 0 0 -148 c0 -117 -3 -152 -16 -170 -17 -24 -62 -30 -82 -10
-31 31 6 96 48 85 19 -5 20 -1 20 59 l0 64 -41 0 c-53 0 -104 -25 -137 -66
l-26 -33 -18 29 c-55 92 -229 96 -303 8 l-25 -30 -25 30 c-35 42 -89 65 -151
64 -57 0 -126 -30 -146 -62 -17 -27 -78 -28 -78 -2 0 24 28 62 46 62 11 0 14
15 14 65 0 61 -1 65 -22 65 -13 0 -41 -9 -63 -19z"/>
</g>
</svg>
